<svg xmlns="http://www.w3.org/2000/svg" xml:space="preserve" style="enable-background:new 0 0 177.5 18.7" viewBox="0 0 177.5 18.7"><path d="M15.8.3v18.3h-4.4V11h-7v7.5H0V.3h4.4v7.2h6.9V.3h4.5zm11.8 18.4c-1.7 0-3.3-.4-4.7-1.2-1.4-.8-2.6-1.9-3.4-3.3-.8-1.4-1.2-3.1-1.2-4.8 0-1.8.4-3.4 1.2-4.8.8-1.4 2-2.5 3.4-3.3 1.4-.8 3-1.2 4.7-1.2s3.3.4 4.7 1.2c1.4.8 2.6 1.9 3.4 3.3.8 1.4 1.2 3 1.2 4.8 0 1.8-.4 3.4-1.2 4.8-.8 1.4-2 2.5-3.4 3.3-1.4.8-2.9 1.2-4.7 1.2zm0-4.1c1.5 0 2.6-.5 3.5-1.5.9-1 1.3-2.3 1.3-3.8 0-1.6-.4-2.9-1.3-3.8-.9-1-2-1.5-3.5-1.5s-2.7.5-3.5 1.4c-.9 1-1.3 2.2-1.3 3.9 0 1.6.4 2.9 1.3 3.9s2.1 1.4 3.5 1.4zm21.2 3.9L45 11.6h-1.1v6.9h-4.4V.3H47c1.4 0 2.7.3 3.7.8s1.8 1.2 2.3 2.1c.4.8.6 1.7.6 2.8 0 1.2-.3 2.3-1 3.3s-1.7 1.6-3 2l4.2 7.2h-5zm-4.9-10h2.8c.8 0 1.4-.2 1.8-.6.4-.4.6-1 .6-1.7s-.2-1.2-.6-1.6c-.4-.4-1-.6-1.8-.6h-2.8v4.5zm17-8.2v18.3h-4.4V.3h4.4zm7.9 14.6h7.9v3.6H63.8v-3.4l7.8-11.2h-7.8V.3h12.9v3.4l-7.9 11.2zm19.4 3.8c-1.7 0-3.3-.4-4.7-1.2-1.4-.8-2.6-1.9-3.4-3.3-.8-1.4-1.2-3.1-1.2-4.8 0-1.8.4-3.4 1.2-4.8.8-1.4 2-2.5 3.4-3.3 1.4-.8 3-1.2 4.7-1.2 1.7 0 3.3.4 4.7 1.2 1.4.8 2.6 1.9 3.4 3.3.8 1.4 1.2 3 1.2 4.8 0 1.8-.4 3.4-1.2 4.8-.8 1.4-2 2.5-3.4 3.3-1.4.8-3 1.2-4.7 1.2zm0-4.1c1.5 0 2.6-.5 3.5-1.5.9-1 1.3-2.3 1.3-3.8 0-1.6-.4-2.9-1.3-3.8-.9-1-2-1.5-3.5-1.5s-2.7.5-3.5 1.4c-.9 1-1.3 2.2-1.3 3.9 0 1.6.4 2.9 1.3 3.9s2 1.4 3.5 1.4zm28.1 3.9h-4.4l-7.4-11.3v11.3H100V.3h4.4l7.4 11.3V.3h4.4v18.2zM135.7.4v1.9h-7.9v6.1h6.4v1.9h-6.4v8.2h-2.4V.4h10.3zm12.4 18.1-4.3-7.4h-2.9v7.4h-2.4V.4h5.9c1.4 0 2.5.2 3.5.7 1 .5 1.7 1.1 2.1 1.9s.7 1.7.7 2.7c0 1.2-.4 2.3-1.1 3.3-.7 1-1.8 1.6-3.2 1.9l4.6 7.6h-2.9zm-7.2-9.3h3.5c1.3 0 2.2-.3 2.9-.9.6-.6 1-1.5 1-2.5 0-1.1-.3-1.9-1-2.5-.6-.6-1.6-.9-2.9-.9h-3.5v6.8zm15.9-6.9v6.1h6.6v2h-6.6v6.2h7.4v2h-9.8V.4h9.8v2h-7.4zm13.3 0v6.1h6.6v2h-6.6v6.2h7.4v2h-9.8V.4h9.8v2h-7.4z" style="fill:#2b3674"/></svg>